<svg width="46" height="46" viewBox="0 0 46 46" fill="none" xmlns="http://www.w3.org/2000/svg">
<path fill-rule="evenodd" clip-rule="evenodd" d="M23 44C34.598 44 44 34.598 44 23C44 11.402 34.598 2 23 2C11.402 2 2 11.402 2 23C2 34.598 11.402 44 23 44ZM23 46C35.7025 46 46 35.7025 46 23C46 10.2975 35.7025 0 23 0C10.2975 0 0 10.2975 0 23C0 35.7025 10.2975 46 23 46Z" fill="#BBF246"/>
<path d="M39.8296 16.6329H37.3461V15.4001C37.3454 14.0424 36.218 12.944 34.8265 12.9434H28.5948V19.63H18.1353V12.9434H11.9036C10.5122 12.9441 9.38467 14.0424 9.384 15.4001V16.6329H6.90049C5.50893 16.6335 4.38145 17.7319 4.38086 19.0896V25.7055C4.38145 27.0618 5.50893 28.1609 6.90041 28.1615H9.38393V29.3936C9.3846 30.7513 10.512 31.8497 11.9035 31.8504H18.1353V31.1587V25.1636H28.5947V31.8504H29.3043H34.8264C36.2179 31.8497 37.3453 30.7513 37.346 29.3936V28.1615H39.8296C41.221 28.1608 42.3484 27.0618 42.3491 25.7055V19.0896C42.3484 17.7319 41.221 16.6335 39.8296 16.6329ZM9.384 26.7781H6.90049C6.29344 26.7768 5.80141 26.2971 5.80007 25.7055V19.0896C5.80141 18.4966 6.29344 18.0169 6.90049 18.0163H9.384V26.7781ZM16.7161 30.467H11.9035C11.2965 30.4656 10.8045 29.9867 10.8031 29.3937V15.4001C10.8045 14.807 11.2965 14.3275 11.9035 14.3267H16.7161V30.467ZM28.5947 23.7803H18.1353V21.0134H28.5948L28.5947 23.7803ZM35.9269 29.3936C35.9255 29.9867 35.4335 30.4656 34.8265 30.4669H30.0139V14.3267H34.8264C35.4335 14.3275 35.9254 14.807 35.9268 15.4001L35.9269 29.3936ZM40.93 25.7055C40.9286 26.2971 40.4367 26.7768 39.8296 26.7781H37.3461V18.0163H39.8296C40.4367 18.0169 40.9286 18.4966 40.93 19.0896V25.7055Z" fill="#BBF246"/>
</svg>
