<svg width="41" height="51" viewBox="0 0 41 51" fill="none" xmlns="http://www.w3.org/2000/svg">
<path d="M34.0018 26.7378C34.072 34.2737 40.6397 36.7815 40.7124 36.8134C40.6569 36.9902 39.663 40.3871 37.2523 43.8959C35.1682 46.9295 33.0054 49.9518 29.5982 50.0144C26.2503 50.0758 25.1738 48.0372 21.3461 48.0372C17.5197 48.0372 16.3236 49.9519 13.1544 50.0759C9.86561 50.1999 7.36113 46.7956 5.25992 43.7732C0.966172 37.5907 -2.31514 26.3031 2.09083 18.6837C4.27962 14.8999 8.19117 12.5039 12.4368 12.4424C15.6663 12.3811 18.7145 14.6063 20.6889 14.6063C22.662 14.6063 26.3662 11.9303 30.2604 12.3233C31.8907 12.3908 36.4669 12.9791 39.4053 17.2628C39.1685 17.409 33.945 20.4375 34.0018 26.7378ZM27.7098 8.23306C29.4558 6.12811 30.631 3.19783 30.3104 0.282227C27.7936 0.38297 24.7502 1.95254 22.945 4.05633C21.3271 5.91933 19.9103 8.90119 20.2926 11.7591C23.0978 11.9752 25.9636 10.3393 27.7098 8.23306Z" fill="black"/>
</svg>
