<svg width="39" height="30" viewBox="0 0 39 30" fill="none" xmlns="http://www.w3.org/2000/svg">
<path d="M0.0511364 30V21.8182C0.0511364 19.4034 0.505682 16.8608 1.41477 14.1903C2.32386 11.5199 3.58807 8.96307 5.20739 6.51989C6.8267 4.0767 8.73011 1.98863 10.9176 0.255682L17.2244 4.77272C15.4915 7.30113 14.0142 9.94318 12.7926 12.6989C11.571 15.4545 10.9602 18.4517 10.9602 21.6903V30H0.0511364ZM21.7841 30V21.8182C21.7841 19.4034 22.2386 16.8608 23.1477 14.1903C24.0568 11.5199 25.321 8.96307 26.9403 6.51989C28.5597 4.0767 30.4631 1.98863 32.6506 0.255682L38.9574 4.77272C37.2244 7.30113 35.7472 9.94318 34.5256 12.6989C33.304 15.4545 32.6932 18.4517 32.6932 21.6903V30H21.7841Z" fill="#BBF246"/>
</svg>
