<svg width="31" height="31" viewBox="0 0 31 31" fill="none" xmlns="http://www.w3.org/2000/svg">
<path d="M21.7722 9.015C21.7782 9.015 21.7862 9.015 21.7942 9.015C22.0032 9.015 22.1972 9.08 22.3562 9.192L22.3532 9.19C22.4692 9.291 22.5472 9.433 22.5662 9.593V9.596C22.5862 9.718 22.5972 9.858 22.5972 10.001C22.5972 10.066 22.5952 10.13 22.5902 10.194V10.185C22.3652 12.554 21.3892 18.299 20.8932 20.951C20.6832 22.074 20.2702 22.45 19.8702 22.486C19.0012 22.567 18.3412 21.912 17.4992 21.36C16.1812 20.495 15.4362 19.957 14.1572 19.114C12.6782 18.141 13.6372 17.604 14.4792 16.73C14.7002 16.5 18.5312 13.015 18.6062 12.699C18.6102 12.68 18.6122 12.659 18.6122 12.637C18.6122 12.559 18.5832 12.488 18.5362 12.434C18.4842 12.4 18.4192 12.381 18.3512 12.381C18.3062 12.381 18.2632 12.39 18.2232 12.405L18.2252 12.404C18.0932 12.434 15.9878 13.8253 11.9092 16.578C11.4642 16.929 10.9022 17.151 10.2902 17.177H10.2842C9.41718 17.072 8.63018 16.879 7.88318 16.604L7.95718 16.628C7.01918 16.322 6.27418 16.161 6.33818 15.643C6.37218 15.3737 6.74351 15.098 7.45218 14.816C11.8175 12.914 14.7285 11.6603 16.1852 11.055C17.7922 10.202 19.6552 9.5 21.6142 9.045L21.7712 9.014L21.7722 9.015ZM15.5802 0C7.27818 0.02 0.555176 6.755 0.555176 15.06C0.555176 23.377 7.29718 30.12 15.6152 30.12C23.9332 30.12 30.6752 23.378 30.6752 15.06C30.6752 6.755 23.9522 0.02 15.6522 0H15.6502C15.6268 0 15.6035 0 15.5802 0Z" fill="#BBF246"/>
</svg>
