<svg width="30" height="30" viewBox="0 0 30 30" fill="none" xmlns="http://www.w3.org/2000/svg">
<path fill-rule="evenodd" clip-rule="evenodd" d="M4.5 0H25.5C27.9853 0 30 2.01472 30 4.5V25.5C30 27.9853 27.9853 30 25.5 30H4.5C2.01472 30 0 27.9853 0 25.5V4.5C0 2.01472 2.01472 0 4.5 0ZM16.875 20.3906C16.875 21.0937 16.3477 21.2109 16.0547 21.2695H14.7656C9.29842 21.3237 6.08156 14.4767 4.37587 10.8462C4.23524 10.5469 4.10488 10.2695 3.98438 10.0195C3.75 9.3164 4.27734 9.2578 4.62891 9.2578H7.85156C8.26172 9.37499 8.4375 9.43359 8.55469 9.78515C9.08203 11.1914 11.3086 15.4687 12.1875 14.8242C12.832 14.4726 12.7734 10.8398 12.3047 10.0781C12.0117 9.72655 11.4844 9.66796 11.3086 9.66796C11.1328 9.60937 11.3672 9.19921 11.7773 8.96484C12.5977 8.55468 15.293 8.67187 16.0547 8.78905C16.9477 8.96766 16.922 9.55455 16.8592 10.9905C16.8396 11.4389 16.8164 11.9702 16.8164 12.5976C16.8164 12.711 16.8138 12.8322 16.8111 12.9573C16.7958 13.6726 16.7777 14.5163 17.2266 14.7656C17.5195 14.9414 18.1055 14.8242 19.5703 12.3047C20.2734 11.1328 20.8008 9.66796 20.8008 9.66796C20.9766 9.37499 21.1523 9.3164 21.5039 9.3164H24.8438C24.8438 9.3164 25.7812 9.2578 26.0156 9.66796C26.1914 10.0781 25.6055 11.1914 24.2578 13.0078C22.9985 14.7436 22.3719 15.3722 22.4237 15.9388C22.4612 16.3477 22.8519 16.7241 23.6133 17.4609C25.3711 19.043 25.8398 19.8047 25.8984 19.9219C26.6016 21.1523 25.0781 21.2695 25.0781 21.2695L22.0898 21.3281C22.0898 21.3281 21.4453 21.3867 20.625 20.8594C20.1866 20.5594 19.7572 20.0777 19.3477 19.6182C18.7174 18.9109 18.134 18.2564 17.6367 18.3984C16.8164 18.6328 16.875 20.3906 16.875 20.3906Z" fill="#BBF246"/>
</svg>
