<svg width="30" height="30" viewBox="0 0 30 30" fill="none" xmlns="http://www.w3.org/2000/svg">
<path fill-rule="evenodd" clip-rule="evenodd" d="M14.9957 0C6.72641 0 0 6.7283 0 14.9999C0 18.2803 1.0579 21.3225 2.85625 23.7918L0.987244 29.3649L6.75278 27.5222C9.12412 29.0919 11.954 30 15.0043 30C23.2736 30 30 23.2715 30 15.0001C30 6.72856 23.2736 0.000247955 15.0043 0.000247955L14.9957 0ZM10.808 7.61927C10.5172 6.92267 10.2967 6.89629 9.85611 6.87838C9.70608 6.86967 9.53888 6.86096 9.35352 6.86096C8.78028 6.86096 8.18092 7.02845 7.8194 7.39878C7.37877 7.84849 6.28551 8.89774 6.28551 11.0495C6.28551 13.2013 7.85473 15.2823 8.06622 15.5735C8.28666 15.8642 11.1255 20.3439 15.5333 22.1697C18.9802 23.5982 20.0031 23.4658 20.7875 23.2983C21.9335 23.0514 23.3706 22.2045 23.7321 21.1819C24.0937 20.1588 24.0936 19.2857 23.9877 19.1006C23.8819 18.9154 23.5908 18.8099 23.1502 18.5891C22.7095 18.3686 20.5671 17.3104 20.1616 17.1693C19.7647 17.0195 19.3858 17.0725 19.0862 17.4958C18.663 18.0866 18.2488 18.6864 17.9136 19.0478C17.6491 19.33 17.217 19.3654 16.8557 19.2153C16.3708 19.0127 15.0133 18.5361 13.3381 17.0459C12.0421 15.8908 11.1606 14.4536 10.9051 14.0215C10.6493 13.5808 10.8787 13.3247 11.0812 13.0868C11.3016 12.8133 11.5131 12.6194 11.7336 12.3635C11.954 12.108 12.0774 11.9756 12.2185 11.6757C12.3685 11.3847 12.2625 11.0848 12.1568 10.8643C12.0511 10.6438 11.1695 8.49207 10.808 7.61927Z" fill="#BBF246"/>
</svg>
