<svg width="43" height="30" viewBox="0 0 43 30" fill="none" xmlns="http://www.w3.org/2000/svg">
<path d="M16.924 21.328V8.67622L28.0463 15.0028L16.924 21.328ZM41.6629 4.69353C41.1606 2.84762 39.7418 1.42026 37.9384 0.915153L37.9001 0.90664C33.3698 0.33059 28.13 0.00141874 22.8121 0.00141874C22.2716 0.00141874 21.7324 0.00425638 21.1947 0.0113506L21.277 0.00993185C20.8201 0.00425648 20.2824 0 19.7418 0C14.424 0 9.18133 0.329171 4.03519 0.966231L4.65097 0.903803C2.81073 1.41884 1.39188 2.84478 0.899546 4.6538L0.891033 4.69069C0.323496 7.68303 0 11.1266 0 14.6453C0 14.7701 6.62352e-08 14.895 0.00141891 15.0184V14.9986C0.00141891 15.1036 0 15.2284 0 15.3533C0 18.872 0.324915 22.3141 0.944949 25.6527L0.891033 25.3065C1.3933 27.1524 2.81215 28.5797 4.61549 29.0849L4.6538 29.0934C9.18417 29.6694 14.424 29.9986 19.7418 29.9986C20.2809 29.9986 20.8201 29.9957 21.3593 29.9887L21.277 29.9901C21.7338 29.9957 22.273 30 22.8121 30C28.1314 30 33.3726 29.6708 38.5187 29.0338L37.903 29.0962C39.7446 28.5826 41.1635 27.1552 41.6572 25.3462L41.6657 25.3093C42.2318 22.317 42.5553 18.8734 42.5553 15.3561C42.5553 15.2313 42.5553 15.1064 42.5539 14.983V15.0014C42.5539 14.8964 42.5553 14.7716 42.5553 14.6467C42.5553 11.128 42.2304 7.68587 41.6104 4.34733L41.6629 4.69353Z" fill="#BBF246"/>
</svg>
